<svg width="30" height="30" viewBox="0 0 30 30" fill="none" xmlns="http://www.w3.org/2000/svg">
<path d="M13.125 -9.76585e-05C5.8875 -9.76585e-05 0 5.8874 0 13.1249C0 20.3624 5.8875 26.2499 13.125 26.2499C15.3375 26.2499 17.5125 25.7249 19.35 24.7124C19.4972 24.8895 19.6604 25.0527 19.8375 25.1999L23.5875 28.9499C23.9338 29.3395 24.356 29.6543 24.8283 29.8748C25.3006 30.0953 25.813 30.217 26.334 30.2323C26.8551 30.2477 27.3737 30.1564 27.8582 29.964C28.3427 29.7716 28.7827 29.4823 29.1513 29.1137C29.5199 28.7451 29.8092 28.3051 30.0016 27.8206C30.194 27.3362 30.2853 26.8175 30.2699 26.2965C30.2546 25.7754 30.1329 25.263 29.9124 24.7907C29.6919 24.3184 29.3771 23.8962 28.9875 23.5499L25.2375 19.7999C25.0548 19.6172 24.8538 19.4538 24.6375 19.3124C25.65 17.4749 26.2875 15.3374 26.2875 13.0874C26.2875 5.8499 20.4 -0.0375977 13.1625 -0.0375977L13.125 -9.76585e-05ZM13.125 3.7499C18.3375 3.7499 22.5 7.9124 22.5 13.1249C22.5 15.5999 21.6 17.8874 20.025 19.5749L19.9125 19.6874C19.7354 19.8346 19.5722 19.9978 19.425 20.1749C17.775 21.6749 15.525 22.5374 13.0875 22.5374C7.875 22.5374 3.7125 18.3749 3.7125 13.1624C3.7125 7.9499 7.875 3.7874 13.0875 3.7874L13.125 3.7499Z" fill="white"/>
</svg>
