<svg width="21" height="8" viewBox="0 0 21 8" fill="none" xmlns="http://www.w3.org/2000/svg">
<path d="M2.96012 7.2C2.68678 7.2 2.34678 7.03667 1.94012 6.71C1.65345 6.66333 1.40678 6.6 1.20012 6.52C1.00012 6.44667 0.833451 6.35667 0.700117 6.25C0.513451 6.09 0.350117 5.87667 0.210117 5.61C0.0701174 5.34333 0.000117369 5.08667 0.000117369 4.84C0.000117369 4.65333 0.0434507 4.48667 0.130117 4.34C0.330117 3.98667 0.583451 3.81 0.890117 3.81C1.12345 3.81 1.26012 4.00667 1.30012 4.4C1.34678 4.76667 1.38345 5.06 1.41012 5.28C1.44345 5.49333 1.47012 5.63333 1.49012 5.7C1.59012 6.02667 1.76012 6.30333 2.00012 6.53C2.28012 6.59 2.58345 6.62 2.91012 6.62C3.63012 6.62 4.32012 6.48333 4.98012 6.21C5.26012 6.09 5.53345 5.93333 5.80012 5.74C6.06678 5.54667 6.28678 5.33333 6.46012 5.1C6.63345 4.86667 6.72012 4.64 6.72012 4.42C6.72012 4.10667 6.44345 3.86333 5.89012 3.69L4.13012 3.29C3.77012 3.21 3.48012 3.07 3.26012 2.87C3.04678 2.66333 2.94012 2.43 2.94012 2.17C2.94012 1.77 3.19012 1.37 3.69012 0.97C3.94345 0.763333 4.24012 0.59 4.58012 0.45C4.92012 0.303333 5.27678 0.193333 5.65012 0.12C6.03012 0.0399999 6.39345 0 6.74012 0C7.23345 0 7.65345 0.0766665 8.00012 0.229999C8.35345 0.383333 8.57345 0.606666 8.66012 0.9C8.68012 0.966666 8.69012 1.04 8.69012 1.12C8.69012 1.52667 8.48678 1.81 8.08012 1.97C7.83345 2.07 7.62345 2.12 7.45012 2.12C7.34345 2.12 7.26012 2.1 7.20012 2.06C7.18678 2.04667 7.18012 2.03 7.18012 2.01C7.18012 1.96333 7.27345 1.93667 7.46012 1.93C7.57345 1.92333 7.66678 1.91333 7.74012 1.9C7.81345 1.88667 7.86678 1.87333 7.90012 1.86C8.15345 1.72667 8.28012 1.53 8.28012 1.27C8.28012 1.13667 8.24345 0.996667 8.17012 0.85C7.96345 0.47 7.44678 0.28 6.62012 0.28C6.32012 0.28 6.01012 0.313333 5.69012 0.38C5.37012 0.44 5.06678 0.533333 4.78012 0.66C4.49345 0.78 4.25012 0.933333 4.05012 1.12C3.70345 1.44 3.53012 1.72667 3.53012 1.98C3.53012 2.17333 3.62345 2.34667 3.81012 2.5C4.00345 2.64667 4.29345 2.75667 4.68012 2.83L5.86012 3.05C6.31345 3.13667 6.68012 3.26667 6.96012 3.44C7.24012 3.60667 7.38012 3.86333 7.38012 4.21C7.38012 4.51667 7.30345 4.80333 7.15012 5.07C6.99678 5.33667 6.79012 5.57667 6.53012 5.79C6.27678 5.99667 5.98678 6.17 5.66012 6.31C4.92012 6.63667 4.04678 6.8 3.04012 6.8C2.91345 6.8 2.78678 6.79667 2.66012 6.79C2.53345 6.78333 2.41012 6.77333 2.29012 6.76C2.38345 6.81333 2.50012 6.86667 2.64012 6.92C2.78678 6.97333 2.95345 7.02333 3.14012 7.07C3.16012 7.07667 3.17012 7.09 3.17012 7.11C3.17012 7.17 3.10012 7.2 2.96012 7.2ZM1.64012 6.43C1.46012 6.23 1.32012 6.02333 1.22012 5.81C1.07345 5.47667 0.963451 5.06667 0.890117 4.58C0.836784 4.22667 0.780117 4.05 0.720117 4.05C0.666784 4.05 0.593451 4.09 0.500117 4.17C0.413451 4.25 0.370117 4.42 0.370117 4.68C0.370117 5.18667 0.550117 5.62667 0.910117 6C1.09012 6.18667 1.33345 6.33 1.64012 6.43ZM8.18059 6.27C8.01392 6.27 7.88392 6.19333 7.79059 6.04C7.69725 5.88 7.65059 5.72667 7.65059 5.58C7.65059 5.18 7.94059 4.62 8.52059 3.9C9.10725 3.17333 9.58059 2.81 9.94059 2.81C10.2806 2.81 10.4506 2.99 10.4506 3.35C10.4506 3.40333 10.4439 3.46 10.4306 3.52C10.4239 3.58 10.4139 3.64333 10.4006 3.71C10.4139 3.73 10.4473 3.74 10.5006 3.74C10.6806 3.74 10.8939 3.67667 11.1406 3.55C11.1339 3.66333 10.8706 3.82667 10.3506 4.04C10.4239 4.26 10.2039 4.68 9.69059 5.3C9.16392 5.94667 8.71392 6.27 8.34059 6.27H8.18059ZM8.36059 5.97C8.64725 5.97 9.01392 5.70667 9.46059 5.18C9.89392 4.66667 10.1106 4.29667 10.1106 4.07C10.0039 4.01 9.87059 3.85667 9.71059 3.61C9.48392 3.61 9.15725 3.88333 8.73059 4.43C8.31059 4.96333 8.10725 5.37333 8.12059 5.66C8.12725 5.86667 8.20725 5.97 8.36059 5.97ZM10.3931 6.3C10.1998 6.3 10.1031 6.24333 10.1031 6.13C10.1031 6.06333 10.1431 5.95667 10.2231 5.81C10.5298 5.26333 10.8031 4.78 11.0431 4.36C11.2898 3.93333 11.5064 3.57333 11.6931 3.28C12.4864 2.00667 13.0464 1.31667 13.3731 1.21C13.3864 1.21 13.3964 1.21 13.4031 1.21C13.4098 1.20333 13.4164 1.2 13.4231 1.2C13.5098 1.2 13.5664 1.27 13.5931 1.41C13.5731 1.55 13.2264 2.05667 12.5531 2.93C12.1998 3.37667 11.9231 3.74667 11.7231 4.04C11.5298 4.32667 11.4098 4.53667 11.3631 4.67C11.5831 4.51 11.8198 4.34 12.0731 4.16C12.3264 3.98 12.5731 3.81 12.8131 3.65C13.0531 3.48333 13.2698 3.35 13.4631 3.25C13.6564 3.14333 13.8064 3.08333 13.9131 3.07C13.9264 3.07 13.9431 3.07 13.9631 3.07C13.9831 3.06333 13.9964 3.06 14.0031 3.06C14.1898 3.06 14.2831 3.14667 14.2831 3.32C14.2831 3.36667 14.2231 3.47 14.1031 3.63C13.9831 3.79 13.7998 4.03667 13.5531 4.37C13.1131 4.95667 12.8931 5.39667 12.8931 5.69C12.8931 5.84333 12.9498 5.92 13.0631 5.92C13.1831 5.91333 13.3198 5.86 13.4731 5.76C13.6331 5.66 13.7931 5.53667 13.9531 5.39C14.1131 5.24333 14.2564 5.1 14.3831 4.96C14.5164 4.81333 14.6164 4.7 14.6831 4.62C14.7431 4.56 14.7898 4.53 14.8231 4.53C14.8498 4.53 14.8631 4.54333 14.8631 4.57C14.8631 4.62333 14.8364 4.68667 14.7831 4.76C14.7031 4.86 14.5831 4.99 14.4231 5.15C14.2698 5.31 14.0998 5.47333 13.9131 5.64C13.7331 5.8 13.5598 5.93667 13.3931 6.05C13.2331 6.15667 13.1131 6.21 13.0331 6.21C12.6398 6.21 12.4431 5.98 12.4431 5.52C12.4431 5.26 12.5631 4.92 12.8031 4.5C12.8964 4.34 12.9931 4.18 13.0931 4.02C13.1931 3.86 13.2931 3.7 13.3931 3.54C12.5398 3.96667 11.7664 4.59667 11.0731 5.43C10.9864 5.55 10.8964 5.68 10.8031 5.82C10.7098 5.95333 10.6264 6.06667 10.5531 6.16C10.4798 6.25333 10.4264 6.3 10.3931 6.3ZM15.0329 6.38C14.8195 6.38 14.6262 6.31333 14.4529 6.18C14.2795 6.04 14.1929 5.85667 14.1929 5.63C14.1929 5.15667 14.4829 4.61667 15.0629 4.01C15.6562 3.39667 16.1862 3.09 16.6529 3.09C16.8062 3.09 16.9295 3.13333 17.0229 3.22C17.1229 3.3 17.1729 3.4 17.1729 3.52C17.1729 3.89333 16.8762 4.26 16.2829 4.62C15.7562 4.94 15.3129 5.1 14.9529 5.1C14.8995 5.1 14.8529 5.09333 14.8129 5.08C14.7129 5.26 14.6629 5.45 14.6629 5.65C14.6629 5.99667 14.8262 6.17 15.1529 6.17C15.4862 6.17 15.9162 5.94667 16.4429 5.5C16.8495 5.17333 17.1962 4.82667 17.4829 4.46C17.5429 4.38 17.5962 4.34 17.6429 4.34C17.6829 4.34 17.7029 4.36 17.7029 4.4C17.7029 4.44 17.6762 4.49667 17.6229 4.57C17.4362 4.81667 17.2362 5.04333 17.0229 5.25C16.8095 5.45667 16.5795 5.64667 16.3329 5.82C15.8195 6.19333 15.3862 6.38 15.0329 6.38ZM15.0929 4.88C15.3462 4.88 15.6762 4.75333 16.0829 4.5C16.2162 4.40667 16.3462 4.30333 16.4729 4.19C16.6062 4.07 16.7129 3.95 16.7929 3.83C16.8795 3.71 16.9229 3.60333 16.9229 3.51C16.9229 3.42333 16.8529 3.38 16.7129 3.38C16.5129 3.38 16.2329 3.53 15.8729 3.83C15.6995 3.97667 15.5329 4.13667 15.3729 4.31C15.2129 4.48333 15.0762 4.66667 14.9629 4.86C15.0029 4.87333 15.0462 4.88 15.0929 4.88ZM17.7012 6.38C17.4879 6.38 17.2945 6.31333 17.1212 6.18C16.9479 6.04 16.8612 5.85667 16.8612 5.63C16.8612 5.15667 17.1512 4.61667 17.7312 4.01C18.3245 3.39667 18.8545 3.09 19.3212 3.09C19.4745 3.09 19.5979 3.13333 19.6912 3.22C19.7912 3.3 19.8412 3.4 19.8412 3.52C19.8412 3.89333 19.5445 4.26 18.9512 4.62C18.4245 4.94 17.9812 5.1 17.6212 5.1C17.5679 5.1 17.5212 5.09333 17.4812 5.08C17.3812 5.26 17.3312 5.45 17.3312 5.65C17.3312 5.99667 17.4945 6.17 17.8212 6.17C18.1545 6.17 18.5845 5.94667 19.1112 5.5C19.5179 5.17333 19.8645 4.82667 20.1512 4.46C20.2112 4.38 20.2645 4.34 20.3112 4.34C20.3512 4.34 20.3712 4.36 20.3712 4.4C20.3712 4.44 20.3445 4.49667 20.2912 4.57C20.1045 4.81667 19.9045 5.04333 19.6912 5.25C19.4779 5.45667 19.2479 5.64667 19.0012 5.82C18.4879 6.19333 18.0545 6.38 17.7012 6.38ZM17.7612 4.88C18.0145 4.88 18.3445 4.75333 18.7512 4.5C18.8845 4.40667 19.0145 4.30333 19.1412 4.19C19.2745 4.07 19.3812 3.95 19.4612 3.83C19.5479 3.71 19.5912 3.60333 19.5912 3.51C19.5912 3.42333 19.5212 3.38 19.3812 3.38C19.1812 3.38 18.9012 3.53 18.5412 3.83C18.3679 3.97667 18.2012 4.13667 18.0412 4.31C17.8812 4.48333 17.7445 4.66667 17.6312 4.86C17.6712 4.87333 17.7145 4.88 17.7612 4.88Z" fill="black"/>
</svg>
